<meta message set_tempo tempo=500000 time=0>
<meta message time_signature numerator=4 denominator=4 clocks_per_click=24 notated_32nd_notes_per_beat=8 time=0>
<meta message end_of_track time=67584>
<meta message text text='harpsichord: John Sankey' time=0>
program_change channel=0 program=6 time=0
pitchwheel channel=0 pitch=0 time=0
program_change channel=1 program=6 time=0
pitchwheel channel=1 pitch=-400 time=0
program_change channel=2 program=6 time=0
pitchwheel channel=2 pitch=-316 time=0
program_change channel=3 program=6 time=0
pitchwheel channel=3 pitch=-240 time=0
program_change channel=4 program=6 time=0
pitchwheel channel=4 pitch=-400 time=0
program_change channel=5 program=6 time=0
pitchwheel channel=5 pitch=-80 time=0
program_change channel=6 program=6 time=0
pitchwheel channel=6 pitch=-480 time=0
program_change channel=7 program=6 time=0
pitchwheel channel=7 pitch=-155 time=0
program_change channel=8 program=6 time=0
pitchwheel channel=8 pitch=-320 time=0
program_change channel=10 program=6 time=0
pitchwheel channel=10 pitch=-480 time=0
program_change channel=11 program=6 time=0
pitchwheel channel=11 pitch=-160 time=0
program_change channel=12 program=6 time=0
pitchwheel channel=12 pitch=-320 time=0
<meta message track_name name='Track 1' time=0>
note_on channel=0 note=60 velocity=127 time=97
note_off channel=0 note=60 velocity=127 time=168
note_on channel=2 note=62 velocity=127 time=13
note_off channel=2 note=62 velocity=127 time=168
note_on channel=4 note=64 velocity=127 time=12
note_off channel=4 note=64 velocity=127 time=168
note_on channel=5 note=65 velocity=127 time=12
note_off channel=5 note=65 velocity=127 time=178
note_on channel=2 note=62 velocity=127 time=2
note_off channel=2 note=62 velocity=127 time=168
note_on channel=4 note=64 velocity=127 time=13
note_off channel=4 note=64 velocity=127 time=178
note_on channel=0 note=60 velocity=127 time=2
note_off channel=0 note=60 velocity=127 time=168
note_on channel=7 note=67 velocity=127 time=12
note_on channel=0 note=48 velocity=127 time=180
note_off channel=7 note=67 velocity=127 time=157
note_off channel=0 note=48 velocity=127 time=19
note_on channel=0 note=72 velocity=127 time=5
note_on channel=2 note=50 velocity=127 time=0
note_off channel=2 note=50 velocity=127 time=176
note_on channel=4 note=52 velocity=127 time=4
note_off channel=0 note=72 velocity=127 time=157
note_off channel=4 note=52 velocity=127 time=19
note_on channel=0 note=72 velocity=127 time=4
note_on channel=5 note=53 velocity=127 time=0
note_off channel=0 note=72 velocity=127 time=87
note_on channel=12 note=71 velocity=127 time=3
note_off channel=5 note=53 velocity=127 time=86
note_off channel=12 note=71 velocity=127 time=2
note_on channel=10 note=69 velocity=127 time=2
note_on channel=2 note=50 velocity=127 time=0
note_off channel=10 note=69 velocity=127 time=87
note_on channel=12 note=71 velocity=127 time=3
note_off channel=2 note=50 velocity=127 time=86
note_off channel=12 note=71 velocity=127 time=2
note_on channel=0 note=72 velocity=127 time=3
note_on channel=4 note=52 velocity=127 time=0
note_off channel=4 note=52 velocity=127 time=176
note_on channel=0 note=48 velocity=127 time=4
note_off channel=0 note=48 velocity=127 time=176
note_off channel=0 note=72 velocity=127 time=2
note_on channel=2 note=74 velocity=127 time=2
note_on channel=7 note=55 velocity=127 time=0
note_off channel=2 note=74 velocity=127 time=178
note_on channel=7 note=67 velocity=127 time=2
note_off channel=7 note=67 velocity=127 time=168
note_on channel=10 note=69 velocity=127 time=13
note_on channel=7 note=43 velocity=127 time=0
note_off channel=10 note=69 velocity=127 time=168
note_on channel=12 note=71 velocity=127 time=12
note_off channel=12 note=71 velocity=127 time=168
note_off channel=7 note=55 velocity=127 time=4
note_on channel=0 note=72 velocity=127 time=8
note_off channel=7 note=43 velocity=127 time=165
note_off channel=0 note=72 velocity=127 time=13
note_on channel=10 note=69 velocity=127 time=2
note_off channel=10 note=69 velocity=127 time=168
note_on channel=12 note=71 velocity=127 time=13
note_off channel=12 note=71 velocity=127 time=178
note_on channel=7 note=67 velocity=127 time=2
note_off channel=7 note=67 velocity=127 time=168
note_on channel=2 note=74 velocity=127 time=12
note_on channel=7 note=55 velocity=127 time=180
note_off channel=2 note=74 velocity=127 time=157
note_off channel=7 note=55 velocity=127 time=19
note_on channel=7 note=79 velocity=127 time=5
note_on channel=10 note=57 velocity=127 time=0
note_off channel=10 note=57 velocity=127 time=176
note_on channel=12 note=59 velocity=127 time=4
note_off channel=7 note=79 velocity=127 time=157
note_off channel=12 note=59 velocity=127 time=19
note_on channel=7 note=79 velocity=127 time=4
note_on channel=0 note=60 velocity=127 time=0
note_off channel=7 note=79 velocity=127 time=87
note_on channel=5 note=77 velocity=127 time=3
note_off channel=0 note=60 velocity=127 time=86
note_off channel=5 note=77 velocity=127 time=2
note_on channel=4 note=76 velocity=127 time=2
note_on channel=10 note=57 velocity=127 time=0
note_off channel=4 note=76 velocity=127 time=87
note_on channel=5 note=77 velocity=127 time=3
note_off channel=10 note=57 velocity=127 time=86
note_off channel=5 note=77 velocity=127 time=2
note_on channel=7 note=79 velocity=127 time=3
note_on channel=12 note=59 velocity=127 time=0
note_off channel=12 note=59 velocity=127 time=176
note_on channel=7 note=55 velocity=127 time=4
note_off channel=7 note=55 velocity=127 time=176
note_off channel=7 note=79 velocity=127 time=2
note_on channel=4 note=76 velocity=127 time=2
note_on channel=0 note=60 velocity=127 time=0
note_off channel=4 note=76 velocity=127 time=178
note_on channel=10 note=81 velocity=127 time=2
note_off channel=10 note=81 velocity=127 time=168
note_off channel=0 note=60 velocity=127 time=8
note_on channel=7 note=79 velocity=127 time=5
note_on channel=12 note=59 velocity=127 time=0
note_off channel=7 note=79 velocity=127 time=168
note_on channel=5 note=77 velocity=127 time=12
note_off channel=12 note=59 velocity=127 time=167
note_off channel=5 note=77 velocity=127 time=1
note_on channel=4 note=76 velocity=127 time=12
note_on channel=0 note=60 velocity=127 time=0
note_off channel=4 note=76 velocity=127 time=178
note_on channel=7 note=79 velocity=127 time=2
note_off channel=7 note=79 velocity=127 time=168
note_off channel=0 note=60 velocity=127 time=8
note_on channel=5 note=77 velocity=127 time=5
note_on channel=2 note=62 velocity=127 time=0
note_off channel=5 note=77 velocity=127 time=178
note_on channel=10 note=81 velocity=127 time=2
note_off channel=2 note=62 velocity=127 time=167
note_off channel=10 note=81 velocity=127 time=1
note_on channel=7 note=79 velocity=127 time=12
note_on channel=4 note=64 velocity=127 time=0
note_off channel=7 note=79 velocity=127 time=178
note_on channel=5 note=77 velocity=127 time=2
note_off channel=5 note=77 velocity=127 time=168
note_on channel=4 note=76 velocity=127 time=13
note_on channel=7 note=55 velocity=127 time=0
note_off channel=4 note=64 velocity=127 time=33
note_off channel=4 note=76 velocity=127 time=135
note_on channel=2 note=74 velocity=127 time=12
note_off channel=7 note=55 velocity=127 time=167
note_off channel=2 note=74 velocity=127 time=1
note_on channel=0 note=72 velocity=127 time=12
note_on channel=10 note=57 velocity=127 time=0
note_off channel=0 note=72 velocity=127 time=178
note_on channel=4 note=76 velocity=127 time=2
note_off channel=4 note=76 velocity=127 time=168
note_off channel=10 note=57 velocity=127 time=8
note_on channel=2 note=74 velocity=127 time=5
note_on channel=12 note=59 velocity=127 time=0
note_off channel=2 note=74 velocity=127 time=178
note_on channel=5 note=77 velocity=127 time=2
note_off channel=12 note=59 velocity=127 time=167
note_off channel=5 note=77 velocity=127 time=1
note_on channel=4 note=76 velocity=127 time=12
note_on channel=0 note=60 velocity=127 time=0
note_off channel=4 note=76 velocity=127 time=178
note_on channel=2 note=74 velocity=127 time=2
note_off channel=2 note=74 velocity=127 time=168
note_on channel=0 note=72 velocity=127 time=13
note_on channel=4 note=52 velocity=127 time=0
note_off channel=0 note=60 velocity=127 time=33
note_off channel=0 note=72 velocity=127 time=135
note_on channel=12 note=71 velocity=127 time=12
note_off channel=4 note=52 velocity=127 time=167
note_off channel=12 note=71 velocity=127 time=1
note_on channel=10 note=69 velocity=127 time=12
note_on channel=6 note=54 velocity=127 time=0
note_off channel=10 note=69 velocity=127 time=178
note_on channel=0 note=72 velocity=127 time=2
note_off channel=0 note=72 velocity=127 time=168
note_off channel=6 note=54 velocity=127 time=8
note_on channel=12 note=71 velocity=127 time=5
note_on channel=7 note=55 velocity=127 time=0
note_off channel=12 note=71 velocity=127 time=178
note_on channel=2 note=74 velocity=127 time=2
note_off channel=2 note=74 velocity=127 time=168
note_off channel=7 note=55 velocity=127 time=8
note_on channel=0 note=72 velocity=127 time=4
note_on channel=10 note=57 velocity=127 time=0
note_off channel=0 note=72 velocity=127 time=178
note_on channel=12 note=71 velocity=127 time=2
note_off channel=12 note=71 velocity=127 time=168
note_off channel=10 note=57 velocity=127 time=8
note_on channel=10 note=69 velocity=127 time=5
note_on channel=12 note=59 velocity=127 time=0
note_off channel=10 note=69 velocity=127 time=168
note_on channel=7 note=67 velocity=127 time=12
note_off channel=7 note=67 velocity=127 time=168
note_off channel=12 note=59 velocity=127 time=8
note_on channel=6 note=66 velocity=127 time=4
note_on channel=0 note=60 velocity=127 time=0
note_on channel=12 note=59 velocity=127 time=94
note_off channel=0 note=60 velocity=127 time=3
note_off channel=6 note=66 velocity=127 time=81
note_on channel=10 note=69 velocity=127 time=2
note_on channel=0 note=60 velocity=127 time=8
note_off channel=12 note=59 velocity=127 time=3
note_off channel=10 note=69 velocity=127 time=157
note_on channel=7 note=67 velocity=127 time=13
note_off channel=7 note=67 velocity=127 time=178
note_on channel=12 note=71 velocity=127 time=2
note_off channel=12 note=71 velocity=127 time=168
note_on channel=10 note=69 velocity=127 time=12
note_off channel=0 note=60 velocity=127 time=41
note_on channel=2 note=50 velocity=127 time=139
note_off channel=10 note=69 velocity=127 time=157
note_off channel=2 note=50 velocity=127 time=19
note_on channel=2 note=62 velocity=127 time=5
note_on channel=4 note=52 velocity=127 time=0
note_off channel=4 note=52 velocity=127 time=176
note_on channel=6 note=54 velocity=127 time=4
note_off channel=2 note=62 velocity=127 time=157
note_off channel=6 note=54 velocity=127 time=19
note_on channel=0 note=72 velocity=127 time=4
note_on channel=7 note=55 velocity=127 time=0
note_off channel=0 note=72 velocity=127 time=87
note_on channel=12 note=71 velocity=127 time=3
note_off channel=7 note=55 velocity=127 time=86
note_off channel=12 note=71 velocity=127 time=2
note_on channel=0 note=72 velocity=127 time=2
note_on channel=4 note=52 velocity=127 time=0
note_off channel=4 note=52 velocity=127 time=176
note_on channel=6 note=54 velocity=127 time=5
note_off channel=6 note=54 velocity=127 time=176
note_off channel=0 note=72 velocity=127 time=1
note_on channel=2 note=74 velocity=127 time=3
note_on channel=2 note=50 velocity=127 time=0
note_off channel=2 note=50 velocity=127 time=176
note_off channel=2 note=74 velocity=127 time=2
note_on channel=12 note=71 velocity=127 time=2
note_on channel=7 note=55 velocity=127 time=0
note_off channel=12 note=71 velocity=127 time=178
note_on channel=10 note=69 velocity=127 time=2
note_off channel=10 note=69 velocity=127 time=168
note_off channel=7 note=55 velocity=127 time=8
note_on channel=7 note=67 velocity=127 time=5
note_on channel=12 note=47 velocity=127 time=0
note_off channel=7 note=67 velocity=127 time=168
note_on channel=6 note=66 velocity=127 time=12
note_off channel=6 note=66 velocity=127 time=168
note_off channel=12 note=47 velocity=127 time=8
note_on channel=4 note=64 velocity=127 time=4
note_on channel=0 note=48 velocity=127 time=0
note_off channel=4 note=64 velocity=127 time=178
note_on channel=7 note=67 velocity=127 time=2
note_off channel=7 note=67 velocity=127 time=168
note_off channel=0 note=48 velocity=127 time=8
note_on channel=6 note=66 velocity=127 time=5
note_on channel=2 note=50 velocity=127 time=0
note_off channel=6 note=66 velocity=127 time=178
note_on channel=10 note=69 velocity=127 time=2
note_off channel=2 note=50 velocity=127 time=167
note_off channel=10 note=69 velocity=127 time=1
note_on channel=7 note=67 velocity=127 time=12
note_on channel=4 note=52 velocity=127 time=0
note_off channel=7 note=67 velocity=127 time=178
note_on channel=12 note=71 velocity=127 time=2
note_off channel=12 note=71 velocity=127 time=168
note_off channel=4 note=52 velocity=127 time=8
note_on channel=10 note=69 velocity=127 time=5
note_on channel=6 note=54 velocity=127 time=0
note_off channel=10 note=69 velocity=127 time=178
note_on channel=0 note=72 velocity=127 time=2
note_off channel=6 note=54 velocity=127 time=167
note_off channel=0 note=72 velocity=127 time=1
note_on channel=12 note=71 velocity=127 time=12
note_on channel=7 note=55 velocity=127 time=0
note_off channel=12 note=71 velocity=127 time=178
note_on channel=2 note=74 velocity=127 time=2
note_off channel=2 note=74 velocity=127 time=168
note_off channel=7 note=55 velocity=127 time=8
note_on channel=0 note=72 velocity=127 time=5
note_on channel=4 note=52 velocity=127 time=0
note_off channel=0 note=72 velocity=127 time=178
note_on channel=4 note=76 velocity=127 time=2
note_off channel=4 note=52 velocity=127 time=167
note_off channel=4 note=76 velocity=127 time=1
note_on channel=2 note=74 velocity=127 time=12
note_on channel=12 note=47 velocity=127 time=0
note_off channel=2 note=74 velocity=127 time=178
note_on channel=12 note=71 velocity=127 time=2
note_off channel=12 note=71 velocity=127 time=87
note_on channel=0 note=72 velocity=127 time=3
note_off channel=0 note=72 velocity=127 time=87
note_on channel=2 note=74 velocity=127 time=3
note_off channel=2 note=74 velocity=127 time=168
note_off channel=12 note=47 velocity=127 time=7
note_on channel=7 note=79 velocity=127 time=5
note_on channel=0 note=48 velocity=127 time=0
note_off channel=7 note=79 velocity=127 time=168
note_off channel=0 note=48 velocity=127 time=8
note_on channel=0 note=72 velocity=127 time=4
note_on channel=2 note=50 velocity=127 time=0
note_off channel=0 note=72 velocity=127 time=87
note_on channel=12 note=71 velocity=127 time=3
note_off channel=12 note=71 velocity=127 time=87
note_on channel=0 note=72 velocity=127 time=2
note_off channel=0 note=72 velocity=127 time=87
note_on channel=12 note=71 velocity=127 time=3
note_off channel=12 note=71 velocity=127 time=87
note_on channel=10 note=69 velocity=127 time=3
note_on channel=2 note=38 velocity=127 time=0
note_off channel=10 note=69 velocity=127 time=178
note_on channel=7 note=67 velocity=127 time=2
note_off channel=2 note=50 velocity=127 time=171
note_off channel=2 note=38 velocity=127 time=5
note_off channel=7 note=67 velocity=127 time=2
note_on channel=7 note=67 velocity=127 time=2
note_on channel=7 note=43 velocity=127 time=180
note_off channel=7 note=43 velocity=127 time=176
note_on channel=10 note=45 velocity=127 time=5
note_off channel=10 note=45 velocity=127 time=176
note_on channel=12 note=47 velocity=127 time=4
note_off channel=12 note=47 velocity=127 time=176
note_on channel=0 note=48 velocity=127 time=4
note_off channel=0 note=48 velocity=127 time=176
note_on channel=10 note=45 velocity=127 time=4
note_off channel=10 note=45 velocity=127 time=176
note_off channel=7 note=67 velocity=127 time=2
note_on channel=12 note=47 velocity=127 time=3
note_off channel=12 note=47 velocity=127 time=176
note_on channel=7 note=43 velocity=127 time=4
note_off channel=7 note=43 velocity=127 time=176
note_on channel=2 note=50 velocity=127 time=4
note_on channel=7 note=67 velocity=127 time=180
note_off channel=7 note=67 velocity=127 time=168
note_off channel=2 note=50 velocity=127 time=8
note_on channel=10 note=69 velocity=127 time=5
note_on channel=7 note=55 velocity=127 time=0
note_off channel=10 note=69 velocity=127 time=168
note_on channel=12 note=71 velocity=127 time=12
note_off channel=7 note=55 velocity=127 time=167
note_off channel=12 note=71 velocity=127 time=1
note_on channel=0 note=72 velocity=127 time=12
note_on channel=6 note=54 velocity=127 time=0
note_off channel=0 note=72 velocity=127 time=178
note_on channel=10 note=69 velocity=127 time=2
note_off channel=10 note=69 velocity=127 time=168
note_off channel=6 note=54 velocity=127 time=8
note_on channel=12 note=71 velocity=127 time=5
note_on channel=7 note=55 velocity=127 time=0
note_off channel=12 note=71 velocity=127 time=178
note_on channel=7 note=67 velocity=127 time=2
note_off channel=7 note=55 velocity=127 time=167
note_off channel=7 note=67 velocity=127 time=1
note_on channel=6 note=66 velocity=127 time=12
note_on channel=10 note=57 velocity=127 time=0
note_off channel=10 note=57 velocity=127 time=176
note_on channel=2 note=50 velocity=127 time=4
note_off channel=2 note=50 velocity=127 time=176
note_off channel=6 note=66 velocity=127 time=0
note_on channel=4 note=52 velocity=127 time=5
note_off channel=4 note=52 velocity=127 time=176
note_on channel=6 note=54 velocity=127 time=4
note_off channel=6 note=54 velocity=127 time=176
note_on channel=7 note=55 velocity=127 time=4
note_off channel=7 note=55 velocity=127 time=176
note_on channel=4 note=52 velocity=127 time=4
note_off channel=4 note=52 velocity=127 time=176
note_on channel=6 note=54 velocity=127 time=5
note_off channel=6 note=54 velocity=127 time=176
note_on channel=2 note=50 velocity=127 time=4
note_off channel=2 note=50 velocity=127 time=176
note_on channel=10 note=57 velocity=127 time=4
note_on channel=10 note=69 velocity=127 time=180
note_off channel=10 note=69 velocity=127 time=168
note_off channel=10 note=57 velocity=127 time=8
note_on channel=12 note=71 velocity=127 time=5
note_on channel=2 note=62 velocity=127 time=0
note_off channel=12 note=71 velocity=127 time=168
note_on channel=0 note=72 velocity=127 time=12
note_off channel=2 note=62 velocity=127 time=167
note_off channel=0 note=72 velocity=127 time=1
note_on channel=2 note=74 velocity=127 time=12
note_on channel=0 note=60 velocity=127 time=0
note_off channel=2 note=74 velocity=127 time=178
note_on channel=12 note=71 velocity=127 time=2
note_off channel=12 note=71 velocity=127 time=168
note_off channel=0 note=60 velocity=127 time=8
note_on channel=0 note=72 velocity=127 time=5
note_on channel=2 note=62 velocity=127 time=0
note_off channel=0 note=72 velocity=127 time=178
note_on channel=10 note=69 velocity=127 time=2
note_off channel=2 note=62 velocity=127 time=167
note_off channel=10 note=69 velocity=127 time=1
note_on channel=12 note=71 velocity=127 time=12
note_on channel=7 note=55 velocity=127 time=0
note_off channel=7 note=55 velocity=127 time=176
note_on channel=7 note=67 velocity=127 time=4
note_off channel=7 note=67 velocity=127 time=176
note_on channel=5 note=65 velocity=127 time=5
note_off channel=5 note=65 velocity=127 time=176
note_on channel=4 note=64 velocity=127 time=4
note_off channel=4 note=64 velocity=127 time=176
note_on channel=2 note=62 velocity=127 time=4
note_off channel=2 note=62 velocity=127 time=176
note_off channel=12 note=71 velocity=127 time=4
note_on channel=5 note=65 velocity=127 time=0
note_off channel=5 note=65 velocity=127 time=176
note_on channel=4 note=64 velocity=127 time=5
note_off channel=4 note=64 velocity=127 time=176
note_on channel=7 note=67 velocity=127 time=4
note_off channel=7 note=67 velocity=127 time=176
note_on channel=5 note=65 velocity=127 time=4
note_on channel=2 note=74 velocity=127 time=180
note_off channel=2 note=74 velocity=127 time=168
note_off channel=5 note=65 velocity=127 time=8
note_on channel=0 note=72 velocity=127 time=5
note_on channel=4 note=64 velocity=127 time=0
note_off channel=0 note=72 velocity=127 time=168
note_on channel=12 note=71 velocity=127 time=12
note_off channel=12 note=71 velocity=127 time=168
note_off channel=4 note=64 velocity=127 time=8
note_on channel=10 note=69 velocity=127 time=4
note_on channel=5 note=65 velocity=127 time=0
note_off channel=10 note=69 velocity=127 time=178
note_on channel=0 note=72 velocity=127 time=2
note_off channel=0 note=72 velocity=127 time=168
note_off channel=5 note=65 velocity=127 time=8
note_on channel=12 note=71 velocity=127 time=5
note_on channel=2 note=62 velocity=127 time=0
note_off channel=12 note=71 velocity=127 time=178
note_on channel=2 note=74 velocity=127 time=2
note_off channel=2 note=74 velocity=127 time=168
note_off channel=2 note=62 velocity=127 time=8
note_on channel=0 note=72 velocity=127 time=4
note_on channel=4 note=64 velocity=127 time=0
note_on channel=12 note=71 velocity=127 time=94
note_off channel=0 note=72 velocity=127 time=3
note_off channel=4 note=64 velocity=127 time=79
note_on channel=10 note=69 velocity=127 time=4
note_on channel=0 note=72 velocity=127 time=7
note_off channel=12 note=71 velocity=127 time=4
note_off channel=10 note=69 velocity=127 time=165
note_on channel=7 note=67 velocity=127 time=5
note_off channel=7 note=67 velocity=127 time=176
note_on channel=5 note=65 velocity=127 time=4
note_off channel=5 note=65 velocity=127 time=176
note_on channel=4 note=64 velocity=127 time=4
note_off channel=4 note=64 velocity=127 time=176
note_on channel=7 note=67 velocity=127 time=4
note_off channel=7 note=67 velocity=127 time=176
note_on channel=5 note=65 velocity=127 time=5
note_off channel=5 note=65 velocity=127 time=176
note_on channel=10 note=69 velocity=127 time=4
note_off channel=10 note=69 velocity=127 time=176
note_on channel=7 note=67 velocity=127 time=4
note_off channel=0 note=72 velocity=127 time=1
note_on channel=4 note=76 velocity=127 time=179
note_off channel=4 note=76 velocity=127 time=168
note_off channel=7 note=67 velocity=127 time=8
note_on channel=2 note=74 velocity=127 time=5
note_on channel=5 note=65 velocity=127 time=0
note_off channel=2 note=74 velocity=127 time=168
note_on channel=0 note=72 velocity=127 time=12
note_off channel=0 note=72 velocity=127 time=168
note_off channel=5 note=65 velocity=127 time=8
note_on channel=12 note=71 velocity=127 time=4
note_on channel=7 note=67 velocity=127 time=0
note_off channel=12 note=71 velocity=127 time=178
note_on channel=2 note=74 velocity=127 time=2
note_off channel=2 note=74 velocity=127 time=168
note_off channel=7 note=67 velocity=127 time=8
note_on channel=1 note=73 velocity=127 time=5
note_on channel=4 note=64 velocity=127 time=0
note_off channel=1 note=73 velocity=127 time=178
note_on channel=4 note=76 velocity=127 time=2
note_off channel=4 note=76 velocity=127 time=168
note_off channel=4 note=64 velocity=127 time=8
note_on channel=2 note=74 velocity=127 time=4
note_on channel=5 note=65 velocity=127 time=0
note_off channel=5 note=65 velocity=127 time=176
note_on channel=11 note=70 velocity=127 time=4
note_off channel=11 note=70 velocity=127 time=176
note_off channel=2 note=74 velocity=127 time=2
note_on channel=1 note=73 velocity=127 time=3
note_on channel=10 note=69 velocity=127 time=0
note_off channel=10 note=69 velocity=127 time=176
note_on channel=7 note=67 velocity=127 time=4
note_off channel=1 note=73 velocity=127 time=167
note_off channel=7 note=67 velocity=127 time=9
note_on channel=2 note=74 velocity=127 time=4
note_on channel=5 note=65 velocity=127 time=0
note_off channel=5 note=65 velocity=127 time=176
note_on channel=10 note=69 velocity=127 time=4
note_off channel=10 note=69 velocity=127 time=176
note_off channel=2 note=74 velocity=127 time=2
note_on channel=5 note=77 velocity=127 time=3
note_on channel=7 note=67 velocity=127 time=0
note_off channel=5 note=77 velocity=127 time=87
note_on channel=4 note=76 velocity=127 time=2
note_off channel=7 note=67 velocity=127 time=87
note_off channel=4 note=76 velocity=127 time=1
note_on channel=2 note=74 velocity=127 time=3
note_on channel=11 note=70 velocity=127 time=0
note_off channel=2 note=74 velocity=127 time=87
note_on channel=4 note=76 velocity=127 time=2
note_off channel=11 note=70 velocity=127 time=87
note_off channel=4 note=76 velocity=127 time=1
note_on channel=5 note=77 velocity=127 time=3
note_on channel=10 note=69 velocity=127 time=0
note_off channel=10 note=69 velocity=127 time=176
note_on channel=7 note=67 velocity=127 time=4
note_off channel=7 note=67 velocity=127 time=176
note_off channel=5 note=77 velocity=127 time=2
note_on channel=10 note=69 velocity=127 time=3
note_on channel=5 note=65 velocity=127 time=0
note_off channel=5 note=65 velocity=127 time=176
note_on channel=4 note=64 velocity=127 time=4
note_off channel=10 note=69 velocity=127 time=167
note_off channel=4 note=64 velocity=127 time=9
note_on channel=12 note=71 velocity=127 time=4
note_on channel=2 note=62 velocity=127 time=0
note_off channel=2 note=62 velocity=127 time=176
note_on channel=5 note=65 velocity=127 time=4
note_off channel=5 note=65 velocity=127 time=176
note_off channel=12 note=71 velocity=127 time=2
note_on channel=2 note=74 velocity=127 time=3
note_on channel=4 note=64 velocity=127 time=0
note_off channel=2 note=74 velocity=127 time=87
note_on channel=1 note=73 velocity=127 time=2
note_off channel=4 note=64 velocity=127 time=87
note_off channel=1 note=73 velocity=127 time=1
note_on channel=12 note=71 velocity=127 time=3
note_on channel=7 note=67 velocity=127 time=0
note_off channel=12 note=71 velocity=127 time=87
note_on channel=1 note=73 velocity=127 time=2
note_off channel=7 note=67 velocity=127 time=87
note_off channel=1 note=73 velocity=127 time=1
note_on channel=2 note=74 velocity=127 time=3
note_on channel=5 note=65 velocity=127 time=0
note_off channel=5 note=65 velocity=127 time=176
note_on channel=4 note=64 velocity=127 time=4
note_off channel=4 note=64 velocity=127 time=176
note_off channel=2 note=74 velocity=127 time=2
note_on channel=6 note=66 velocity=127 time=3
note_on channel=2 note=62 velocity=127 time=0
note_off channel=2 note=62 velocity=127 time=176
note_on channel=0 note=60 velocity=127 time=4
note_off channel=6 note=66 velocity=127 time=167
note_off channel=0 note=60 velocity=127 time=9
note_on channel=8 note=68 velocity=127 time=4
note_on channel=12 note=59 velocity=127 time=0
note_off channel=12 note=59 velocity=127 time=176
note_on channel=2 note=62 velocity=127 time=4
note_off channel=2 note=62 velocity=127 time=176
note_off channel=8 note=68 velocity=127 time=2
note_on channel=10 note=69 velocity=127 time=3
note_on channel=0 note=60 velocity=127 time=0
note_off channel=0 note=60 velocity=127 time=176
note_on channel=4 note=64 velocity=127 time=4
note_off channel=10 note=69 velocity=127 time=167
note_off channel=4 note=64 velocity=127 time=9
note_on channel=12 note=71 velocity=127 time=4
note_on channel=2 note=62 velocity=127 time=0
note_off channel=2 note=62 velocity=127 time=176
note_on channel=0 note=60 velocity=127 time=4
note_off channel=0 note=60 velocity=127 time=176
note_off channel=12 note=71 velocity=127 time=2
note_on channel=0 note=72 velocity=127 time=3
note_on channel=12 note=59 velocity=127 time=0
note_off channel=12 note=59 velocity=127 time=176
note_on channel=10 note=57 velocity=127 time=4
note_off channel=0 note=72 velocity=127 time=167
note_off channel=10 note=57 velocity=127 time=9
note_on channel=12 note=71 velocity=127 time=4
note_on channel=8 note=56 velocity=127 time=0
note_on channel=0 note=72 velocity=127 time=94
note_off channel=12 note=71 velocity=127 time=3
note_off channel=8 note=56 velocity=127 time=79
note_on channel=12 note=59 velocity=127 time=4
note_on channel=2 note=74 velocity=127 time=7
note_off channel=0 note=72 velocity=127 time=4
note_off channel=12 note=59 velocity=127 time=165
note_on channel=10 note=57 velocity=127 time=5
note_off channel=10 note=57 velocity=127 time=176
note_on channel=0 note=60 velocity=127 time=4
note_off channel=0 note=60 velocity=127 time=176
note_on channel=12 note=59 velocity=127 time=4
note_off channel=2 note=74 velocity=127 time=4
note_on channel=4 note=64 velocity=127 time=175
note_off channel=12 note=59 velocity=127 time=176
note_off channel=4 note=64 velocity=127 time=2
note_on channel=6 note=66 velocity=127 time=2
note_on channel=4 note=52 velocity=127 time=0
note_off channel=6 note=66 velocity=127 time=168
note_on channel=8 note=68 velocity=127 time=13
note_off channel=8 note=68 velocity=127 time=168
note_off channel=4 note=52 velocity=127 time=7
note_on channel=10 note=69 velocity=127 time=5
note_on channel=2 note=62 velocity=127 time=0
note_off channel=2 note=62 velocity=127 time=86
note_on channel=0 note=60 velocity=127 time=8
note_off channel=10 note=69 velocity=127 time=84
note_off channel=0 note=60 velocity=127 time=2
note_on channel=6 note=66 velocity=127 time=0
note_on channel=2 note=62 velocity=127 time=7
note_off channel=6 note=66 velocity=127 time=160
note_on channel=8 note=68 velocity=127 time=12
note_off channel=8 note=68 velocity=127 time=178
note_on channel=4 note=64 velocity=127 time=3
note_off channel=2 note=62 velocity=127 time=111
note_off channel=4 note=64 velocity=127 time=57
note_on channel=4 note=76 velocity=127 time=12
note_on channel=0 note=60 velocity=127 time=0
note_off channel=0 note=60 velocity=127 time=176
note_off channel=4 note=76 velocity=127 time=2
note_on channel=2 note=74 velocity=127 time=2
note_on channel=12 note=59 velocity=127 time=0
note_off channel=2 note=74 velocity=127 time=168
note_off channel=12 note=59 velocity=127 time=8
note_on channel=0 note=72 velocity=127 time=4
note_on channel=10 note=57 velocity=127 time=0
note_off channel=10 note=57 velocity=127 time=176
note_off channel=0 note=72 velocity=127 time=2
note_on channel=4 note=76 velocity=127 time=3
note_on channel=7 note=55 velocity=127 time=0
note_off channel=4 note=76 velocity=127 time=168
note_off channel=7 note=55 velocity=127 time=8
note_on channel=2 note=74 velocity=127 time=4
note_on channel=6 note=54 velocity=127 time=0
note_off channel=6 note=54 velocity=127 time=176
note_off channel=2 note=74 velocity=127 time=2
note_on channel=0 note=72 velocity=127 time=2
note_on channel=10 note=57 velocity=127 time=0
note_off channel=0 note=72 velocity=127 time=168
note_off channel=10 note=57 velocity=127 time=8
note_on channel=12 note=71 velocity=127 time=4
note_on channel=8 note=56 velocity=127 time=0
note_off channel=8 note=56 velocity=127 time=176
note_off channel=12 note=71 velocity=127 time=2
note_on channel=2 note=74 velocity=127 time=3
note_on channel=12 note=59 velocity=127 time=0
note_off channel=2 note=74 velocity=127 time=168
note_off channel=12 note=59 velocity=127 time=8
note_on channel=0 note=72 velocity=127 time=4
note_on channel=10 note=57 velocity=127 time=0
note_off channel=10 note=57 velocity=127 time=176
note_off channel=0 note=72 velocity=127 time=2
note_on channel=10 note=81 velocity=127 time=2
note_on channel=0 note=60 velocity=127 time=0
note_off channel=10 note=81 velocity=127 time=168
note_off channel=0 note=60 velocity=127 time=8
note_on channel=8 note=80 velocity=127 time=4
note_on channel=12 note=59 velocity=127 time=0
note_off channel=12 note=59 velocity=127 time=176
note_off channel=8 note=80 velocity=127 time=2
note_on channel=12 note=83 velocity=127 time=3
note_on channel=2 note=62 velocity=127 time=0
note_off channel=12 note=83 velocity=127 time=168
note_off channel=2 note=62 velocity=127 time=8
note_on channel=10 note=81 velocity=127 time=4
note_on channel=0 note=60 velocity=127 time=0
note_off channel=0 note=60 velocity=127 time=176
note_off channel=10 note=81 velocity=127 time=2
note_on channel=4 note=76 velocity=127 time=2
note_on channel=4 note=64 velocity=127 time=0
note_off channel=4 note=76 velocity=127 time=168
note_off channel=4 note=64 velocity=127 time=8
note_on channel=5 note=77 velocity=127 time=4
note_on channel=2 note=62 velocity=127 time=0
note_off channel=2 note=62 velocity=127 time=176
note_off channel=5 note=77 velocity=127 time=2
note_on channel=2 note=74 velocity=127 time=3
note_on channel=5 note=65 velocity=127 time=0
note_off channel=2 note=74 velocity=127 time=158
note_off channel=5 note=65 velocity=127 time=1
note_on channel=8 note=68 velocity=127 time=21
note_on channel=4 note=64 velocity=127 time=0
note_off channel=8 note=68 velocity=127 time=178
note_on channel=5 note=77 velocity=127 time=2
note_off channel=5 note=77 velocity=127 time=168
note_off channel=4 note=64 velocity=127 time=8
note_on channel=4 note=76 velocity=127 time=4
note_on channel=10 note=57 velocity=127 time=0
note_off channel=4 note=76 velocity=127 time=168
note_on channel=2 note=74 velocity=127 time=13
note_off channel=2 note=74 velocity=127 time=163
note_off channel=10 note=57 velocity=127 time=4
note_on channel=2 note=74 velocity=127 time=13
note_on channel=4 note=64 velocity=127 time=0
note_off channel=2 note=74 velocity=127 time=87
note_on channel=0 note=72 velocity=127 time=3
note_off channel=0 note=72 velocity=127 time=87
note_on channel=2 note=74 velocity=127 time=2
note_off channel=2 note=74 velocity=127 time=87
note_on channel=0 note=72 velocity=127 time=3
note_off channel=4 note=64 velocity=127 time=86
note_off channel=0 note=72 velocity=127 time=2
note_on channel=12 note=71 velocity=127 time=2
note_on channel=4 note=52 velocity=127 time=0
note_off channel=12 note=71 velocity=127 time=178
note_on channel=10 note=69 velocity=127 time=3
note_off channel=4 note=52 velocity=127 time=166
note_off channel=10 note=69 velocity=127 time=7
note_on channel=10 note=69 velocity=127 time=7
note_on channel=10 note=57 velocity=127 time=0
note_on channel=10 note=81 velocity=127 time=180
note_off channel=10 note=69 velocity=127 time=31
note_off channel=10 note=81 velocity=127 time=147
note_on channel=7 note=79 velocity=127 time=2
note_on channel=10 note=45 velocity=127 time=0
note_off channel=7 note=79 velocity=127 time=178
note_on channel=5 note=77 velocity=127 time=3
note_off channel=5 note=77 velocity=127 time=178
note_on channel=4 note=76 velocity=127 time=2
note_off channel=4 note=76 velocity=127 time=178
note_on channel=7 note=79 velocity=127 time=2
note_off channel=7 note=79 velocity=127 time=178
note_off channel=10 note=57 velocity=127 time=0
note_on channel=5 note=77 velocity=127 time=2
note_off channel=5 note=77 velocity=127 time=178
note_off channel=10 note=45 velocity=127 time=2
note_on channel=10 note=81 velocity=127 time=1
note_off channel=10 note=81 velocity=127 time=178
note_on channel=7 note=79 velocity=127 time=2
note_off channel=7 note=79 velocity=127 time=87
note_on channel=5 note=77 velocity=127 time=3
note_off channel=5 note=77 velocity=127 time=87
note_on channel=7 note=79 velocity=127 time=2
note_on channel=4 note=64 velocity=127 time=0
note_off channel=4 note=64 velocity=127 time=176
note_on channel=2 note=62 velocity=127 time=4
note_off channel=2 note=62 velocity=127 time=176
note_on channel=0 note=60 velocity=127 time=5
note_off channel=0 note=60 velocity=127 time=176
note_on channel=12 note=59 velocity=127 time=4
note_off channel=12 note=59 velocity=127 time=176
note_on channel=2 note=62 velocity=127 time=4
note_off channel=2 note=62 velocity=127 time=176
note_on channel=1 note=61 velocity=127 time=4
note_off channel=1 note=61 velocity=127 time=176
note_on channel=4 note=64 velocity=127 time=5
note_off channel=4 note=64 velocity=127 time=176
note_on channel=2 note=62 velocity=127 time=4
note_off channel=2 note=62 velocity=127 time=86
note_on channel=1 note=61 velocity=127 time=5
note_off channel=1 note=61 velocity=127 time=86
note_off channel=7 note=79 velocity=127 time=1
note_on channel=4 note=76 velocity=127 time=3
note_on channel=2 note=62 velocity=127 time=0
note_off channel=4 note=76 velocity=127 time=178
note_on channel=5 note=77 velocity=127 time=2
note_off channel=5 note=77 velocity=127 time=178
note_on channel=7 note=79 velocity=127 time=3
note_off channel=7 note=79 velocity=127 time=178
note_on channel=10 note=81 velocity=127 time=2
note_off channel=10 note=81 velocity=127 time=178
note_on channel=5 note=77 velocity=127 time=2
note_off channel=5 note=77 velocity=127 time=178
note_on channel=7 note=79 velocity=127 time=2
note_off channel=7 note=79 velocity=127 time=178
note_on channel=4 note=76 velocity=127 time=3
note_off channel=4 note=76 velocity=127 time=178
note_on channel=5 note=77 velocity=127 time=2
note_off channel=5 note=77 velocity=127 time=87
note_off channel=2 note=62 velocity=127 time=2
note_on channel=4 note=76 velocity=127 time=1
note_off channel=4 note=76 velocity=127 time=87
note_on channel=5 note=77 velocity=127 time=2
note_on channel=10 note=57 velocity=127 time=0
note_off channel=10 note=57 velocity=127 time=176
note_on channel=12 note=59 velocity=127 time=4
note_off channel=12 note=59 velocity=127 time=176
note_on channel=0 note=60 velocity=127 time=5
note_off channel=0 note=60 velocity=127 time=176
note_on channel=2 note=62 velocity=127 time=4
note_off channel=2 note=62 velocity=127 time=176
note_on channel=12 note=59 velocity=127 time=4
note_off channel=12 note=59 velocity=127 time=176
note_on channel=0 note=60 velocity=127 time=4
note_off channel=0 note=60 velocity=127 time=176
note_on channel=10 note=57 velocity=127 time=5
note_off channel=10 note=57 velocity=127 time=176
note_on channel=12 note=59 velocity=127 time=4
note_off channel=12 note=59 velocity=127 time=86
note_on channel=10 note=57 velocity=127 time=5
note_off channel=10 note=57 velocity=127 time=86
note_off channel=5 note=77 velocity=127 time=1
note_on channel=7 note=79 velocity=127 time=3
note_on channel=12 note=59 velocity=127 time=0
note_off channel=7 note=79 velocity=127 time=178
note_on channel=5 note=77 velocity=127 time=2
note_off channel=5 note=77 velocity=127 time=178
note_on channel=4 note=76 velocity=127 time=3
note_off channel=4 note=76 velocity=127 time=178
note_on channel=2 note=74 velocity=127 time=2
note_off channel=2 note=74 velocity=127 time=178
note_on channel=5 note=77 velocity=127 time=2
note_off channel=5 note=77 velocity=127 time=178
note_on channel=4 note=76 velocity=127 time=2
note_off channel=4 note=76 velocity=127 time=178
note_on channel=7 note=79 velocity=127 time=3
note_off channel=7 note=79 velocity=127 time=178
note_on channel=5 note=77 velocity=127 time=2
note_off channel=5 note=77 velocity=127 time=87
note_off channel=12 note=59 velocity=127 time=2
note_on channel=4 note=76 velocity=127 time=1
note_off channel=4 note=76 velocity=127 time=87
note_on channel=5 note=77 velocity=127 time=2
note_on channel=2 note=62 velocity=127 time=0
note_off channel=2 note=62 velocity=127 time=176
note_on channel=0 note=60 velocity=127 time=4
note_off channel=0 note=60 velocity=127 time=176
note_on channel=12 note=59 velocity=127 time=5
note_off channel=12 note=59 velocity=127 time=176
note_on channel=10 note=57 velocity=127 time=4
note_off channel=10 note=57 velocity=127 time=176
note_on channel=0 note=60 velocity=127 time=4
note_off channel=0 note=60 velocity=127 time=176
note_on channel=12 note=59 velocity=127 time=4
note_off channel=12 note=59 velocity=127 time=176
note_on channel=2 note=62 velocity=127 time=5
note_off channel=2 note=62 velocity=127 time=176
note_on channel=0 note=60 velocity=127 time=4
note_off channel=0 note=60 velocity=127 time=86
note_on channel=12 note=59 velocity=127 time=5
note_off channel=12 note=59 velocity=127 time=86
note_off channel=5 note=77 velocity=127 time=1
note_on channel=2 note=74 velocity=127 time=3
note_on channel=0 note=60 velocity=127 time=0
note_off channel=2 note=74 velocity=127 time=178
note_on channel=4 note=76 velocity=127 time=2
note_off channel=4 note=76 velocity=127 time=178
note_on channel=5 note=77 velocity=127 time=3
note_off channel=5 note=77 velocity=127 time=178
note_on channel=7 note=79 velocity=127 time=2
note_off channel=7 note=79 velocity=127 time=178
note_on channel=4 note=76 velocity=127 time=2
note_off channel=4 note=76 velocity=127 time=178
note_on channel=5 note=77 velocity=127 time=2
note_off channel=5 note=77 velocity=127 time=178
note_on channel=2 note=74 velocity=127 time=3
note_off channel=2 note=74 velocity=127 time=178
note_on channel=2 note=74 velocity=127 time=2
note_off channel=0 note=60 velocity=127 time=164
note_off channel=2 note=74 velocity=127 time=14
note_on channel=4 note=76 velocity=127 time=2
note_on channel=7 note=55 velocity=127 time=0
note_on channel=5 note=77 velocity=127 time=90
note_off channel=4 note=76 velocity=127 time=6
note_off channel=7 note=55 velocity=127 time=79
note_on channel=4 note=76 velocity=127 time=4
note_on channel=10 note=57 velocity=127 time=0
note_off channel=5 note=77 velocity=127 time=7
note_on channel=5 note=77 velocity=127 time=76
note_off channel=4 note=76 velocity=127 time=6
note_on channel=4 note=76 velocity=127 time=76
note_off channel=5 note=77 velocity=127 time=7
note_off channel=10 note=57 velocity=127 time=4
note_on channel=11 note=58 velocity=127 time=5
note_on channel=5 note=77 velocity=127 time=66
note_off channel=4 note=76 velocity=127 time=4
note_on channel=4 note=76 velocity=127 time=76
note_off channel=5 note=77 velocity=127 time=5
note_off channel=11 note=58 velocity=127 time=25
note_on channel=0 note=60 velocity=127 time=4
note_on channel=5 note=77 velocity=127 time=39
note_off channel=4 note=76 velocity=127 time=9
note_on channel=4 note=76 velocity=127 time=64
note_off channel=5 note=77 velocity=127 time=9
note_off channel=0 note=60 velocity=127 time=55
note_on channel=10 note=57 velocity=127 time=4
note_off channel=10 note=57 velocity=127 time=176
note_on channel=11 note=58 velocity=127 time=4
note_off channel=11 note=58 velocity=127 time=176
note_on channel=7 note=55 velocity=127 time=5
note_off channel=7 note=55 velocity=127 time=176
note_on channel=10 note=57 velocity=127 time=4
note_off channel=4 note=76 velocity=127 time=141
note_on channel=0 note=72 velocity=127 time=38
note_off channel=0 note=72 velocity=127 time=168
note_off channel=10 note=57 velocity=127 time=8
note_on channel=2 note=74 velocity=127 time=4
note_on channel=11 note=58 velocity=127 time=0
note_off channel=2 note=74 velocity=127 time=168
note_on channel=4 note=76 velocity=127 time=13
note_off channel=4 note=76 velocity=127 time=168
note_off channel=11 note=58 velocity=127 time=7
note_on channel=5 note=77 velocity=127 time=5
note_on channel=10 note=57 velocity=127 time=0
note_off channel=5 note=77 velocity=127 time=178
note_on channel=2 note=74 velocity=127 time=2
note_off channel=2 note=74 velocity=127 time=168
note_off channel=10 note=57 velocity=127 time=8
note_on channel=4 note=76 velocity=127 time=4
note_on channel=7 note=55 velocity=127 time=0
note_off channel=4 note=76 velocity=127 time=178
note_on channel=0 note=72 velocity=127 time=3
note_off channel=0 note=72 velocity=127 time=168
note_off channel=7 note=55 velocity=127 time=7
note_on channel=2 note=74 velocity=127 time=5
note_on channel=5 note=53 velocity=127 time=0
note_off channel=2 note=74 velocity=127 time=178
note_on channel=4 note=76 velocity=127 time=2
note_off channel=4 note=76 velocity=127 time=168
note_off channel=5 note=53 velocity=127 time=8
note_on channel=5 note=77 velocity=127 time=4
note_on channel=2 note=62 velocity=127 time=0
note_off channel=5 note=77 velocity=127 time=168
note_on channel=7 note=79 velocity=127 time=13
note_off channel=7 note=79 velocity=127 time=168
note_off channel=2 note=62 velocity=127 time=7
note_on channel=10 note=81 velocity=127 time=5
note_on channel=0 note=60 velocity=127 time=0
note_off channel=10 note=81 velocity=127 time=178
note_on channel=5 note=77 velocity=127 time=2
note_off channel=5 note=77 velocity=127 time=168
note_off channel=0 note=60 velocity=127 time=8
note_on channel=7 note=79 velocity=127 time=4
note_on channel=11 note=58 velocity=127 time=0
note_off channel=7 note=79 velocity=127 time=178
note_on channel=4 note=76 velocity=127 time=3
note_off channel=4 note=76 velocity=127 time=168
note_off channel=11 note=58 velocity=127 time=7
note_on channel=5 note=77 velocity=127 time=5
note_on channel=10 note=57 velocity=127 time=0
note_off channel=5 note=77 velocity=127 time=178
note_on channel=7 note=79 velocity=127 time=2
note_off channel=7 note=79 velocity=127 time=168
note_off channel=10 note=57 velocity=127 time=8
note_on channel=10 note=81 velocity=127 time=4
note_on channel=5 note=65 velocity=127 time=0
note_off channel=10 note=81 velocity=127 time=168
note_on channel=12 note=83 velocity=127 time=13
note_off channel=12 note=83 velocity=127 time=168
note_off channel=5 note=65 velocity=127 time=7
note_on channel=0 note=84 velocity=127 time=5
note_on channel=4 note=64 velocity=127 time=0
note_off channel=0 note=84 velocity=127 time=178
note_on channel=10 note=81 velocity=127 time=2
note_off channel=10 note=81 velocity=127 time=168
note_off channel=4 note=64 velocity=127 time=8
note_on channel=12 note=83 velocity=127 time=4
note_on channel=2 note=62 velocity=127 time=0
note_off channel=12 note=83 velocity=127 time=178
note_on channel=7 note=79 velocity=127 time=3
note_off channel=7 note=79 velocity=127 time=168
note_off channel=2 note=62 velocity=127 time=7
note_on channel=4 note=64 velocity=127 time=21
note_on channel=0 note=84 velocity=127 time=0
note_off channel=4 note=64 velocity=127 time=179
note_on channel=2 note=50 velocity=127 time=5
note_off channel=0 note=84 velocity=127 time=158
note_off channel=2 note=50 velocity=127 time=20
note_on channel=4 note=52 velocity=127 time=4
note_on channel=7 note=79 velocity=127 time=0
note_off channel=4 note=52 velocity=127 time=179
note_on channel=5 note=53 velocity=127 time=4
note_off channel=7 note=79 velocity=127 time=159
note_off channel=5 note=53 velocity=127 time=19
note_on channel=5 note=77 velocity=127 time=5
note_on channel=7 note=55 velocity=127 time=0
note_off channel=5 note=77 velocity=127 time=89
note_on channel=4 note=76 velocity=127 time=2
note_off channel=7 note=55 velocity=127 time=88
note_off channel=4 note=76 velocity=127 time=1
note_on channel=5 note=77 velocity=127 time=3
note_on channel=4 note=52 velocity=127 time=0
note_off channel=5 note=77 velocity=127 time=89
note_on channel=4 note=76 velocity=127 time=3
note_off channel=4 note=52 velocity=127 time=87
note_off channel=4 note=76 velocity=127 time=2
note_on channel=2 note=74 velocity=127 time=2
note_on channel=5 note=53 velocity=127 time=0
note_off channel=5 note=53 velocity=127 time=179
note_on channel=0 note=72 velocity=127 time=1
note_off channel=2 note=74 velocity=127 time=1
note_on channel=2 note=50 velocity=127 time=3
note_off channel=0 note=72 velocity=127 time=157
note_off channel=2 note=50 velocity=127 time=21
note_on channel=0 note=72 velocity=127 time=12
note_on channel=4 note=52 velocity=127 time=0
note_off channel=0 note=72 velocity=127 time=189
note_on channel=11 note=70 velocity=127 time=3
note_off channel=11 note=70 velocity=127 time=179
note_off channel=4 note=52 velocity=127 time=8
note_on channel=10 note=69 velocity=127 time=4
note_on channel=0 note=48 velocity=127 time=0
note_off channel=10 note=69 velocity=127 time=189
note_on channel=7 note=67 velocity=127 time=3
note_off channel=7 note=67 velocity=127 time=179
note_off channel=0 note=48 velocity=127 time=8
note_on channel=5 note=65 velocity=127 time=5
note_on channel=2 note=50 velocity=127 time=0
note_off channel=5 note=65 velocity=127 time=189
note_on channel=10 note=69 velocity=127 time=2
note_off channel=10 note=69 velocity=127 time=179
note_off channel=2 note=50 velocity=127 time=9
note_on channel=7 note=67 velocity=127 time=4
note_on channel=4 note=52 velocity=127 time=0
note_off channel=7 note=67 velocity=127 time=189
note_on channel=11 note=70 velocity=127 time=2
note_off channel=11 note=70 velocity=127 time=179
note_off channel=4 note=52 velocity=127 time=9
note_on channel=10 note=69 velocity=127 time=4
note_on channel=5 note=53 velocity=127 time=0
note_off channel=5 note=53 velocity=127 time=199
note_off channel=10 note=69 velocity=127 time=2
note_on channel=12 note=71 velocity=127 time=3
note_on channel=2 note=50 velocity=127 time=0
note_off channel=2 note=50 velocity=127 time=199
note_off channel=12 note=71 velocity=127 time=2
note_on channel=0 note=72 velocity=127 time=3
note_on channel=4 note=52 velocity=127 time=0
note_off channel=4 note=52 velocity=127 time=199
note_on channel=4 note=64 velocity=127 time=5
note_on channel=5 note=53 velocity=127 time=0
note_off channel=4 note=64 velocity=127 time=191
note_off channel=5 note=53 velocity=127 time=8
note_on channel=2 note=62 velocity=127 time=5
note_on channel=7 note=55 velocity=127 time=0
note_off channel=0 note=72 velocity=127 time=208
note_on channel=0 note=72 velocity=127 time=19
note_off channel=2 note=62 velocity=127 time=224
note_on channel=5 note=65 velocity=127 time=5
note_on channel=7 note=43 velocity=127 time=0
note_off channel=7 note=55 velocity=127 time=209
note_off channel=0 note=72 velocity=127 time=14
note_on channel=12 note=71 velocity=127 time=6
note_off channel=7 note=43 velocity=127 time=223
note_off channel=5 note=65 velocity=127 time=0
note_off channel=12 note=71 velocity=127 time=2
note_on channel=0 note=36 velocity=127 time=27
note_on channel=0 note=72 velocity=127 time=0
note_on channel=7 note=67 velocity=127 time=0
note_on channel=4 note=64 velocity=127 time=0
note_off channel=4 note=64 velocity=127 time=2852
note_off channel=7 note=67 velocity=127 time=0
note_off channel=0 note=72 velocity=127 time=0
note_off channel=0 note=36 velocity=127 time=0
<meta message end_of_track time=3811>
<meta message track_name name='MIDI' time=0>
<meta message end_of_track time=1536>
